<?xml version="1.0" standalone="no"?>
<!DOCTYPE svg PUBLIC "-//W3C//DTD SVG 20010904//EN"
 "http://www.w3.org/TR/2001/REC-SVG-20010904/DTD/svg10.dtd">
<svg version="1.0" xmlns="http://www.w3.org/2000/svg"
 width="712.000000pt" height="713.000000pt" viewBox="0 0 712.000000 713.000000"
 preserveAspectRatio="xMidYMid meet">
<metadata>
Created by potrace 1.16, written by Peter Selinger 2001-2019
</metadata>
<g transform="translate(0.000000,713.000000) scale(0.100000,-0.100000)"
fill="#000000" stroke="none">
<path d="M0 3565 l0 -3565 3560 0 3560 0 0 3565 0 3565 -3560 0 -3560 0 0
-3565z m3735 2735 c508 -47 967 -217 1381 -511 337 -240 600 -554 824 -982
142 -273 229 -556 276 -897 24 -167 24 -499 1 -665 -49 -354 -170 -694 -360
-1011 -75 -125 -276 -396 -317 -427 -10 -7 -9 -4 3 9 9 11 17 31 18 45 0 13 3
18 6 11 3 -8 20 4 46 34 74 83 97 124 95 170 -2 36 2 46 30 68 20 18 34 40 38
64 3 20 14 51 24 67 32 53 146 288 173 355 63 159 143 448 166 605 5 39 13
171 16 295 7 226 -3 360 -37 518 -18 84 -20 54 -3 -64 9 -60 18 -164 22 -231
l6 -123 -64 1 c-56 1 -59 2 -26 9 20 4 40 10 44 13 8 8 -13 49 -38 76 -10 10
-15 22 -11 25 3 4 0 4 -9 1 -10 -4 -15 2 -17 21 -1 15 -4 30 -7 32 -3 3 -5
-52 -5 -121 l0 -127 65 0 65 0 -2 -62 -2 -63 -3 58 -4 57 -59 0 -60 0 0 -48
c0 -113 -65 -497 -82 -486 -5 3 -6 -6 -2 -20 4 -17 1 -31 -11 -42 -9 -9 -14
-22 -11 -30 9 -24 -54 -201 -93 -258 -10 -16 -17 -36 -13 -44 4 -10 1 -13 -7
-8 -8 5 -11 3 -10 -5 2 -8 -14 -47 -34 -87 -21 -40 -35 -77 -32 -83 4 -5 1 -8
-6 -7 -6 2 -14 -3 -17 -11 -3 -9 0 -11 9 -6 8 5 11 4 6 -1 -5 -5 -12 -8 -15
-8 -13 2 -33 -36 -26 -48 4 -6 3 -8 -3 -5 -11 7 -58 -61 -49 -71 8 -8 -24 -63
-33 -57 -5 2 -32 -27 -60 -65 -51 -70 -69 -104 -31 -59 10 13 19 19 20 13 0
-5 -14 -23 -32 -40 -17 -16 -27 -22 -23 -14 6 11 5 12 -4 4 -7 -6 -14 -20 -15
-30 -2 -11 -7 -19 -12 -19 -5 0 -31 -25 -59 -55 -27 -30 -77 -80 -109 -111
-35 -33 -56 -61 -52 -67 4 -7 2 -10 -6 -7 -7 3 -34 -16 -58 -42 -42 -44 -43
-45 -10 -22 44 32 60 41 60 36 0 -3 -37 -33 -82 -67 -69 -53 -77 -57 -48 -25
l35 38 -35 -25 c-19 -13 -66 -47 -105 -75 -90 -65 -201 -131 -340 -200 -245
-124 -453 -184 -850 -247 -16 -2 6 -3 50 -1 l80 3 -80 -15 c-111 -21 -487 -23
-610 -3 l-90 15 60 6 c33 3 47 6 31 7 -60 4 -215 35 -336 69 -253 69 -525 192
-729 328 -313 209 -487 382 -711 708 -29 43 -58 81 -65 85 -21 12 -77 121 -69
133 4 7 3 9 -3 6 -6 -4 -17 8 -24 26 -7 17 -21 43 -32 57 -20 26 -35 58 -74
155 -21 55 -24 49 -7 -20 4 -18 2 -25 -8 -25 -8 0 -24 -9 -36 -20 l-22 -21 -9
23 c-4 13 -19 52 -32 87 -12 35 -24 60 -26 54 -4 -12 43 -143 86 -238 37 -81
39 -94 7 -40 -40 66 -122 301 -159 455 -33 140 -65 326 -56 335 3 2 13 -50 23
-116 10 -66 20 -118 23 -115 3 2 -2 49 -10 103 -15 91 -41 343 -39 360 1 5 28
10 59 13 52 4 58 8 61 29 5 31 -12 41 -70 41 l-47 0 5 73 c11 157 36 356 55
437 10 47 26 117 35 155 32 136 74 244 169 435 134 267 291 500 454 673 80 84
98 95 116 70 44 -61 39 -58 68 -37 35 25 34 37 -8 68 -31 24 -34 29 -22 46 42
60 360 280 547 379 130 69 142 83 18 20 -99 -50 -262 -149 -378 -229 -105 -73
-328 -278 -419 -385 -89 -105 -211 -269 -243 -325 -14 -25 -39 -66 -57 -92
-28 -41 -62 -109 -61 -123 0 -3 -24 -53 -54 -113 -78 -155 -125 -300 -203
-615 -39 -163 -55 -590 -29 -816 37 -323 173 -708 361 -1026 25 -42 43 -81 40
-86 -8 -13 -53 19 -61 43 -3 11 -12 17 -19 14 -30 -11 -213 342 -285 550 -41
119 -92 317 -110 424 -19 116 -29 403 -20 583 8 152 37 368 69 509 32 140 110
343 199 518 157 309 304 513 536 746 320 319 678 532 1116 663 330 99 702 140
1015 111z m2386 -3020 c-18 -156 -60 -346 -108 -490 -39 -119 -213 -500 -228
-500 -3 0 10 31 29 69 172 341 274 674 303 992 4 46 9 71 11 54 2 -16 -1 -72
-7 -125z m-1071 -1910 c-121 -97 -471 -276 -665 -340 -289 -95 -563 -140 -856
-140 -155 0 -408 26 -559 56 -149 31 -419 117 -316 101 33 -5 90 15 79 28 -5
4 3 5 17 1 139 -37 262 -58 430 -72 188 -16 257 -16 705 1 83 3 242 29 340 56
43 12 71 15 73 9 5 -13 81 -13 121 1 23 8 31 17 28 28 -3 12 5 22 24 30 16 7
27 16 25 20 -3 4 16 16 42 26 71 29 254 120 301 149 23 15 55 26 74 26 19 0
37 3 41 7 3 4 14 8 24 9 9 2 33 7 52 12 19 6 37 10 40 11 3 0 -6 -8 -20 -19z
m-1357 -530 c40 -6 110 -17 157 -25 47 -8 194 -22 327 -30 275 -17 341 -25
322 -35 -19 -11 -156 -26 -384 -45 -223 -18 -326 -30 -453 -51 -103 -17 -177
-15 -362 9 -189 26 -285 36 -395 42 -285 17 -499 37 -483 46 13 7 173 21 458
40 91 6 246 21 345 34 199 25 358 30 468 15z"/>
<path d="M3805 6196 c118 -13 188 -26 385 -72 310 -73 827 -349 1023 -548 l39
-38 -31 -32 c-36 -37 -38 -47 -13 -69 28 -25 47 -21 73 18 13 19 27 35 30 35
11 0 136 -136 179 -195 24 -33 62 -82 85 -110 126 -152 311 -479 389 -688 71
-189 144 -606 146 -829 0 -16 5 -28 10 -28 14 0 12 84 -5 227 -18 158 -29 217
-71 398 -46 193 -73 272 -147 425 -33 69 -62 132 -63 140 -2 8 -8 16 -14 18
-5 2 -8 8 -4 13 3 5 0 9 -7 9 -7 0 -9 3 -6 7 8 7 -26 66 -57 101 -12 13 -20
26 -18 28 5 9 -29 64 -37 59 -5 -2 -8 3 -7 13 0 9 -4 16 -10 15 -7 -1 -11 5
-10 15 0 9 -5 16 -12 14 -7 -1 -12 5 -10 15 2 10 -2 17 -8 16 -6 -1 -28 23
-50 54 -155 220 -404 452 -651 609 -112 71 -354 191 -489 244 -203 78 -477
139 -654 145 l-115 4 130 -13z"/>
<path d="M3215 6019 c-179 -24 -262 -40 -393 -77 -86 -23 -92 -26 -71 -38 21
-11 17 -14 -58 -38 -117 -36 -334 -148 -508 -261 -82 -54 -156 -98 -162 -98
-7 0 -11 -3 -8 -6 9 -9 -57 -70 -70 -64 -7 2 -16 -4 -19 -14 -7 -21 -60 -56
-70 -46 -3 4 6 20 21 37 17 19 11 16 -14 -8 -23 -22 -39 -44 -36 -49 3 -6 2
-7 -4 -4 -13 8 -76 -57 -66 -67 5 -4 1 -6 -7 -4 -8 2 -14 -2 -13 -8 1 -7 -7
-20 -17 -29 -11 -10 -20 -14 -20 -10 0 4 -9 0 -20 -10 -11 -10 -17 -22 -13
-28 3 -6 1 -7 -5 -3 -6 4 -16 -4 -23 -16 -11 -21 -11 -22 4 -9 13 10 12 3 -6
-37 -16 -37 -31 -55 -56 -67 -33 -16 -34 -16 -20 1 9 11 9 15 1 10 -24 -14
-95 -130 -99 -159 -4 -40 -32 -84 -43 -68 -4 8 -23 -18 -49 -68 -23 -45 -40
-81 -37 -81 3 0 22 33 42 73 21 39 39 66 41 59 3 -7 -2 -24 -11 -37 -19 -29
-20 -39 -4 -29 7 4 8 3 4 -5 -4 -6 -11 -9 -16 -6 -4 2 -27 -34 -50 -81 -23
-47 -44 -83 -47 -81 -2 3 1 15 7 27 6 12 10 24 7 26 -5 5 -54 -107 -91 -209
-14 -37 -21 -65 -16 -62 16 10 3 -85 -23 -176 -23 -77 -35 -149 -69 -389 -18
-129 -3 -453 27 -610 48 -246 103 -415 206 -629 215 -448 529 -788 964 -1043
250 -147 632 -274 921 -308 134 -15 446 -12 602 6 360 41 687 162 1027 378
161 103 414 337 537 496 329 427 528 978 528 1465 0 155 -23 384 -55 535 -21
102 -109 365 -158 475 -28 63 -41 106 -43 144 -1 29 -7 58 -14 65 -8 8 -10 7
-5 -6 4 -10 3 -18 -3 -18 -14 0 -23 28 -11 36 6 3 -3 29 -22 62 -54 98 -120
192 -130 187 -5 -4 -6 0 -3 8 3 8 -3 20 -12 28 -16 12 -17 12 -11 -4 4 -11 3
-16 -4 -12 -6 4 -8 13 -5 20 8 21 -121 183 -143 179 -3 -1 -5 2 -4 7 2 4 -5 5
-14 2 -12 -5 -15 -2 -10 9 6 18 -24 50 -50 54 -8 2 -25 12 -37 23 -13 12 -25
18 -29 14 -9 -8 -48 27 -41 38 2 5 -13 25 -36 45 -22 20 -37 40 -35 45 16 25
-313 239 -490 317 -162 72 -382 142 -525 168 -143 25 -222 31 -106 8 148 -29
73 -28 -147 2 -76 11 -142 13 -220 9 -90 -6 -121 -4 -157 9 -48 17 -91 18
-185 5z m358 -121 c55 -64 -42 -147 -106 -90 -15 12 -18 13 -12 2 4 -8 4 -12
0 -7 -11 9 -15 46 -8 70 7 25 63 58 88 51 11 -3 28 -15 38 -26z m-435 -99
c-21 -11 -38 -24 -38 -29 0 -11 43 -14 54 -3 4 4 23 6 42 4 20 -1 49 3 65 9
22 10 32 10 43 1 10 -8 16 -9 21 -1 3 5 17 10 31 10 15 0 24 6 24 15 0 12 7
11 40 -6 64 -33 106 -39 156 -22 24 8 44 20 44 26 0 7 4 6 9 -2 7 -10 35 -15
103 -17 51 -1 100 -5 108 -7 8 -3 23 -7 32 -9 12 -2 15 -7 9 -16 -6 -10 -18
-11 -52 -3 -45 11 -217 15 -207 6 3 -3 54 -10 114 -15 117 -11 416 -78 408
-92 -3 -4 2 -5 11 -2 8 4 21 2 28 -3 6 -5 35 -18 62 -28 77 -28 157 -66 173
-81 19 -20 2 -17 -55 7 -275 118 -529 169 -853 169 -236 0 -441 -34 -671 -110
-293 -98 -554 -265 -816 -523 -89 -88 -162 -163 -161 -166 2 -19 -5 -33 -27
-56 -14 -14 -30 -25 -35 -25 -5 0 -19 -18 -31 -40 -12 -22 -24 -38 -27 -36
-11 12 128 224 178 271 45 43 63 80 50 105 -8 15 -8 20 1 20 8 0 8 4 -1 15
-10 12 -10 15 4 15 9 0 16 -4 16 -10 0 -17 16 -11 44 15 37 35 36 89 -4 135
-45 54 -36 56 28 7 98 -77 93 -76 175 -14 241 181 524 320 776 377 117 27 201
40 386 59 l80 8 -95 2 c-99 1 -308 -30 -450 -67 -73 -19 -99 -20 -70 -2 9 6
14 21 12 41 -3 23 0 30 10 27 7 -3 13 -16 13 -29 1 -20 5 -23 25 -21 14 2 27
8 28 13 2 5 13 9 25 9 28 0 39 8 56 43 14 27 31 36 31 17 0 -5 -4 -10 -10 -10
-5 0 -10 -7 -10 -15 0 -9 9 -15 25 -15 18 0 25 5 25 20 0 20 42 49 70 49 8 0
-2 -9 -22 -20z m-322 -144 c-13 -7 -48 -22 -78 -33 -118 -45 -271 -126 -412
-221 -83 -55 -154 -97 -160 -94 -6 4 -2 11 9 17 10 6 27 19 37 29 10 9 20 17
23 17 3 0 30 20 61 45 30 25 62 45 70 45 8 0 20 5 27 10 17 15 77 53 109 69
22 11 26 18 21 46 -4 24 -1 34 12 39 15 5 16 4 5 -9 -15 -18 -6 -45 15 -45 8
0 20 9 27 19 6 10 18 17 25 14 7 -3 34 5 61 18 26 12 55 22 65 20 9 -1 17 2
17 7 0 14 41 29 67 24 l24 -4 -25 -13z m984 -26 c117 -16 281 -56 387 -94 211
-76 485 -235 623 -362 l65 -60 -64 -72 c-70 -79 -96 -97 -114 -83 -7 5 -39 31
-72 57 -237 191 -548 329 -830 369 -156 22 -245 28 -245 17 0 -9 25 -13 168
-26 302 -29 613 -162 904 -387 l77 -60 -21 -29 c-20 -26 -37 -41 -24 -21 9 15
-104 110 -209 177 -18 11 -57 37 -88 58 -31 20 -61 37 -67 37 -6 0 -38 14 -71
30 -97 49 -239 97 -355 119 -123 23 -303 43 -316 34 -6 -3 -8 58 -6 146 2 121
6 154 18 162 16 10 111 6 240 -12z m-320 -139 c0 -136 -2 -150 -17 -150 -121
-1 -382 -56 -481 -101 -26 -11 -69 -28 -97 -36 -106 -32 -376 -194 -463 -279
l-64 -61 -16 33 c-8 19 -14 35 -11 37 2 2 33 26 69 54 235 182 437 286 676
348 102 26 287 54 357 55 20 0 37 5 37 10 0 30 -338 -23 -508 -79 -211 -69
-472 -219 -626 -360 l-28 -26 -79 85 -79 84 33 34 c17 18 73 64 123 102 340
257 714 395 1082 399 l92 1 0 -150z m1521 -174 c-44 -45 -42 -88 4 -131 28
-27 34 -40 33 -68 -1 -20 7 -48 17 -64 10 -15 -24 11 -76 60 -52 48 -124 113
-161 145 -84 72 -96 96 -21 42 31 -22 62 -40 68 -40 7 0 31 15 55 33 63 47 94
65 103 60 5 -3 -5 -20 -22 -37z m-2965 -28 c19 -36 18 -61 -4 -88 -17 -21 -21
-22 -55 -11 -40 13 -67 44 -67 75 0 10 16 34 36 53 35 33 37 33 56 16 11 -10
26 -30 34 -45z m3049 21 c19 -17 35 -37 35 -45 0 -7 -14 -29 -31 -49 -24 -27
-39 -35 -58 -33 -30 4 -56 48 -47 82 6 26 43 76 56 76 5 0 25 -14 45 -31z
m-1597 -57 c2 -7 0 -12 -5 -13 -230 -17 -354 -41 -503 -94 -176 -64 -346 -164
-492 -289 -43 -36 -80 -66 -83 -66 -34 0 127 180 235 264 81 64 153 100 271
139 148 49 173 55 262 62 54 4 83 2 93 -6 14 -11 39 -10 144 9 55 10 73 9 78
-6z m567 -51 c55 -26 115 -54 133 -61 17 -7 45 -27 60 -44 15 -17 61 -54 102
-81 79 -53 186 -131 208 -152 21 -20 61 -26 78 -12 13 10 12 6 -3 -25 -9 -21
-19 -33 -21 -27 -5 16 -166 142 -250 196 -150 96 -350 174 -541 211 -72 14
-101 24 -69 24 9 0 29 7 44 16 51 27 143 11 259 -45z m-509 -126 c3 -22 10
-44 14 -50 5 -5 10 -21 12 -35 2 -21 9 -25 38 -28 211 -15 407 -78 610 -196
105 -61 142 -88 202 -145 26 -25 49 -43 51 -40 2 2 22 27 44 56 l40 51 22 -28
c11 -16 21 -32 21 -35 0 -3 -18 -25 -41 -50 l-41 -44 39 -41 c56 -61 143 -186
186 -267 64 -122 141 -389 106 -368 -5 4 -9 -17 -9 -49 0 -43 3 -56 15 -56 11
0 15 -12 15 -44 0 -25 4 -47 10 -51 5 -3 7 -12 3 -20 -4 -13 11 -15 96 -15
l101 0 0 -30 c0 -36 -1 -37 -107 -44 l-83 -5 -1 37 c-1 22 -3 29 -6 17 -6 -24
-23 -37 -40 -30 -12 4 -19 -70 -16 -175 0 -19 -5 -39 -12 -45 -6 -5 -22 -50
-34 -100 -12 -49 -42 -135 -66 -192 -25 -56 -45 -106 -45 -112 0 -5 -4 -11 -8
-13 -4 -1 -34 -40 -65 -85 -32 -46 -65 -90 -74 -99 -12 -12 -13 -18 -4 -23 9
-6 8 -11 -4 -21 -8 -7 -15 -21 -15 -31 0 -11 -6 -19 -12 -19 -10 0 -10 -2 -1
-8 13 -8 -81 -99 -166 -160 -64 -46 -191 -115 -198 -108 -3 3 -11 -1 -17 -8
-17 -21 -181 -82 -270 -100 -43 -9 -123 -19 -176 -22 l-98 -7 -7 -83 -7 -84
-33 0 -32 0 -6 81 c-3 44 -7 83 -10 85 -3 3 -33 8 -68 13 l-64 7 55 11 c62 11
73 7 -130 48 -74 15 -148 27 -163 27 -16 1 -24 4 -18 7 6 4 -6 13 -27 20 -305
108 -568 355 -726 681 -22 47 -44 86 -48 88 -4 2 -4 10 -1 18 3 10 0 12 -10 9
-45 -18 -118 153 -130 309 -5 59 -14 65 -107 73 l-70 6 0 33 0 34 53 0 c28 0
68 5 88 10 l36 10 6 88 c7 109 48 278 93 385 43 104 126 242 202 338 l60 76
-34 46 c-30 41 -46 72 -28 54 4 -3 15 -2 26 4 15 8 17 13 7 25 -24 29 5 13 48
-26 l44 -41 72 60 c202 166 469 280 734 313 92 11 93 11 93 39 0 15 5 31 10
34 6 3 10 23 10 44 0 36 2 38 30 37 26 -1 30 -5 36 -41z m1460 -97 c102 -106
126 -137 220 -288 95 -153 193 -356 228 -470 63 -210 106 -433 106 -552 0 -36
-1 -37 -46 -44 -25 -3 -78 -3 -117 2 l-72 9 -8 70 c-30 280 -87 469 -222 735
-65 126 -206 331 -274 394 -42 40 -39 18 4 -36 235 -292 396 -628 449 -937 15
-87 22 -264 9 -232 -4 10 -7 10 -13 1 -9 -15 -100 -27 -100 -13 0 5 -5 59 -11
119 -25 261 -144 574 -301 795 -32 44 -58 82 -58 85 0 6 58 -35 81 -58 10 -10
30 -34 43 -55 14 -21 39 -54 56 -73 28 -32 26 -26 -20 68 -67 135 -211 316
-243 306 -17 -5 -12 4 21 42 23 27 72 86 109 131 38 45 71 82 74 82 3 1 41
-36 85 -81z m-2837 0 c36 -40 86 -94 110 -120 l44 -48 -29 -22 c-68 -52 -154
-159 -218 -271 l-28 -49 72 71 c39 39 77 71 83 71 6 0 43 33 80 73 53 55 59
60 25 19 -90 -112 -110 -140 -179 -249 -87 -140 -136 -243 -189 -403 -42 -126
-80 -296 -80 -360 0 -70 -6 -77 -58 -74 -26 2 -53 3 -61 3 -34 2 17 325 79
505 86 250 188 432 369 659 29 37 51 70 49 73 -10 10 -125 -126 -197 -233
-180 -267 -302 -598 -327 -888 -4 -44 -11 -86 -17 -92 -6 -9 -43 -13 -120 -13
l-110 0 7 93 c13 176 53 361 116 542 57 163 222 459 330 595 63 79 166 190
175 190 4 0 37 -32 74 -72z m-322 -1422 c2 -2 8 -46 14 -97 32 -317 172 -645
381 -894 133 -158 125 -134 68 -190 l-50 -49 -26 25 c-14 13 -69 83 -122 156
-224 308 -354 637 -378 955 l-7 96 29 5 c29 5 84 0 91 -7z m3421 4 c21 0 22
-4 21 -77 0 -87 -15 -182 -19 -128 -3 33 -2 35 -36 -132 -8 -39 -18 -73 -22
-75 -7 -3 -34 -82 -98 -287 -14 -45 -35 -90 -45 -99 -10 -9 -19 -21 -19 -27 0
-5 5 -3 11 5 9 13 10 13 6 0 -2 -8 -11 -14 -20 -12 -10 1 -43 -39 -94 -116
-60 -90 -75 -118 -59 -114 20 5 20 5 -1 -21 -12 -15 -45 -53 -75 -85 l-53 -58
-46 51 -46 50 65 70 c158 169 320 474 382 716 18 68 50 285 50 338 0 10 9 12
38 7 20 -3 47 -6 60 -6z m-3564 -42 c3 -18 8 -64 11 -103 29 -326 227 -770
461 -1031 85 -96 82 -103 -4 -11 -133 143 -273 379 -367 617 -39 99 -51 123
-40 80 6 -25 6 -25 -55 -22 -39 3 -60 0 -60 -7 0 -6 -9 -11 -19 -11 -11 0 -21
-5 -23 -12 -3 -7 -16 19 -31 58 -44 118 -30 53 24 -103 96 -279 252 -544 441
-748 l64 -69 22 36 c12 20 39 48 60 64 l37 28 -41 -46 c-23 -25 -47 -55 -53
-67 -7 -11 -18 -21 -26 -21 -34 0 -226 243 -337 425 -94 155 -192 384 -237
555 -45 170 -74 393 -54 413 3 4 55 7 114 7 l108 0 5 -32z m3849 18 c8 -21
-11 -218 -29 -299 -58 -265 -184 -560 -333 -781 -77 -114 -264 -329 -274 -315
-35 49 -70 93 -104 130 l-42 45 50 50 c84 82 154 173 225 294 161 273 247 531
269 803 l7 87 113 0 c87 0 114 -3 118 -14z m-3065 -1211 c161 -127 432 -253
656 -305 90 -20 238 -40 304 -40 l43 0 -3 -57 c-2 -40 -7 -57 -15 -56 -7 2
-13 -4 -13 -13 0 -10 -6 -14 -17 -10 -10 2 -58 7 -108 11 -235 17 -509 106
-753 243 -99 56 -262 174 -262 189 0 3 19 27 43 53 47 52 39 53 125 -15z
m2209 -36 c-1 -11 -13 -23 -29 -28 -15 -6 -28 -12 -28 -15 0 -3 7 -3 15 0 27
11 16 -2 -32 -37 -149 -107 -404 -243 -458 -243 -19 0 -32 -3 -30 -7 8 -12
-116 -51 -143 -45 -17 4 -22 3 -14 -2 33 -22 -287 -74 -326 -53 -11 6 -41 11
-66 11 l-46 0 0 54 0 53 128 6 c97 4 155 13 246 36 246 65 512 197 653 326
l48 43 42 -40 c23 -22 41 -49 40 -59z m-2351 -63 c63 -54 260 -175 358 -221
210 -97 413 -153 641 -176 118 -12 135 -19 134 -49 0 -8 -4 -5 -9 8 -8 19 -16
22 -71 22 -92 0 -300 37 -419 74 -163 52 -306 113 -439 190 -35 20 -58 29 -51
21 9 -11 10 -19 3 -23 -16 -10 -26 -52 -25 -97 3 -62 -9 -72 -52 -46 -20 13
-36 20 -36 18 0 -3 28 -23 63 -45 157 -99 397 -199 602 -251 152 -38 228 -50
338 -52 51 -1 87 -6 87 -12 0 -30 -388 29 -550 83 -177 60 -395 159 -517 236
-64 41 -240 171 -248 185 -3 4 14 26 37 48 24 21 57 57 73 80 17 22 33 41 36
41 3 0 23 -15 45 -34z m2467 -73 c47 -49 50 -54 38 -76 -7 -14 -51 -53 -98
-88 -309 -228 -670 -368 -1035 -400 -178 -15 -168 -22 -168 115 l0 113 98 7
c203 14 458 79 635 160 127 59 320 175 415 252 l26 21 20 -26 c10 -14 42 -49
69 -78z m-1270 -725 c75 -40 57 -138 -25 -138 -76 0 -92 98 -23 138 25 14 22
14 48 0z"/>
<path d="M3243 4855 c-62 -13 -121 -29 -130 -35 -16 -10 -16 -10 2 -6 294 79
707 51 909 -61 65 -36 87 -60 27 -29 -84 44 -247 91 -361 105 -336 42 -642
-39 -926 -245 -170 -123 -273 -250 -380 -469 -105 -215 -141 -386 -124 -595
38 -465 308 -856 728 -1052 256 -121 650 -143 926 -53 170 56 336 156 470 285
259 249 396 583 383 930 -8 200 -34 308 -119 489 -84 180 -201 326 -362 450
-58 45 -106 84 -106 87 0 9 84 -44 145 -93 33 -26 89 -79 125 -117 36 -39 86
-90 111 -115 25 -25 56 -63 68 -84 13 -21 25 -36 28 -33 7 7 -70 128 -130 203
-30 38 -78 90 -107 116 -126 113 -351 244 -500 291 -187 59 -481 73 -677 31z
m292 -74 c0 -21 21 -28 120 -41 99 -12 289 -71 383 -119 71 -36 147 -89 214
-150 37 -34 53 -42 71 -37 28 7 61 -22 52 -46 -3 -8 15 -40 43 -74 111 -139
183 -273 216 -403 25 -94 46 -204 46 -236 0 -58 10 -75 37 -69 16 4 28 2 33
-7 13 -20 -8 -49 -34 -49 -21 0 -24 -7 -40 -106 -41 -251 -113 -409 -267 -587
-38 -44 -69 -87 -69 -95 0 -12 4 -12 20 3 30 28 33 13 4 -28 -26 -39 -44 -48
-44 -22 0 9 -7 18 -15 21 -8 4 -15 10 -15 14 0 5 36 44 79 88 168 168 277 402
287 617 2 50 1 83 -2 75 -4 -8 -13 -20 -22 -27 -14 -11 -21 -73 -26 -215 0
-20 -4 -34 -8 -31 -5 2 -8 -1 -8 -8 0 -16 -52 -122 -65 -131 -5 -4 -6 -8 -2
-8 4 0 -4 -20 -17 -45 -14 -25 -23 -45 -21 -45 3 0 -48 -54 -112 -121 -65 -67
-117 -125 -115 -130 1 -5 -1 -8 -5 -7 -14 4 -73 -36 -73 -49 0 -7 -3 -12 -7
-11 -13 4 -57 -24 -85 -54 -14 -15 -41 -35 -60 -42 -18 -8 -54 -24 -81 -35
-26 -11 -49 -19 -50 -18 -2 1 -15 -6 -30 -16 -14 -9 -54 -24 -88 -31 -65 -16
-86 -26 -52 -26 35 0 193 49 278 86 44 20 124 67 178 104 53 38 97 65 97 60 0
-8 -95 -79 -180 -134 -97 -63 -315 -131 -482 -151 -32 -4 -48 -11 -48 -21 0
-8 8 -14 18 -14 16 -1 15 -2 -2 -11 -20 -12 -154 -5 -216 12 -27 6 -17 7 38 4
111 -8 87 14 -44 40 -112 22 -212 50 -321 90 -70 26 -220 120 -274 171 -35 34
-35 35 -54 14 -23 -25 -27 -25 -43 1 -11 18 -11 23 4 33 20 15 15 27 -36 83
-140 153 -222 307 -259 486 -11 51 -20 85 -21 77 -1 -8 -6 1 -11 20 -5 19 -6
51 -3 71 5 34 3 37 -26 48 -22 7 -30 16 -28 28 2 10 11 17 21 17 9 -1 17 2 17
7 0 5 7 9 15 9 8 0 15 4 15 10 0 52 26 231 42 290 31 118 147 326 230 416 29
31 47 84 29 84 -6 0 -8 7 -5 15 8 19 33 19 53 1 14 -13 19 -10 40 18 36 47
168 141 254 181 121 56 251 95 365 110 59 8 108 15 108 15 1 0 5 12 8 26 5 19
12 25 29 22 12 -2 22 -9 22 -17z"/>
<path d="M3695 4703 c44 -9 82 -19 85 -22 7 -10 125 -61 139 -61 33 0 342
-202 353 -230 2 -4 43 -51 91 -103 72 -78 98 -115 139 -199 27 -57 65 -133 84
-169 33 -64 34 -71 35 -180 1 -63 4 -104 6 -91 2 12 9 20 14 16 5 -3 7 -10 4
-15 -4 -5 -1 -9 4 -9 36 0 -22 282 -85 416 -59 126 -146 244 -246 336 -50 46
-99 90 -109 99 -30 29 -159 110 -213 134 -93 41 -249 86 -316 90 l-65 4 80
-16z"/>
<path d="M3223 4690 c-72 -15 -232 -87 -318 -145 -82 -55 -160 -123 -152 -131
8 -8 52 14 80 40 31 29 133 96 145 96 5 0 33 15 63 33 50 30 148 68 212 81 15
4 27 11 27 16 0 5 17 7 38 5 34 -4 35 -4 7 4 -38 11 -50 11 -102 1z"/>
<path d="M3480 4560 c-79 -10 -144 -31 -147 -48 -3 -14 -3 -14 112 -12 160 2
346 -35 466 -94 93 -46 245 -164 300 -233 150 -189 212 -360 212 -588 -1 -100
-5 -135 -27 -210 -95 -325 -298 -534 -621 -642 -106 -35 -115 -37 -255 -37
-141 0 -148 1 -260 38 -261 86 -419 212 -539 430 -55 101 -82 182 -101 299
-26 161 10 397 84 550 19 40 33 74 31 76 -2 2 -29 -22 -60 -53 -104 -104 -145
-230 -145 -449 0 -157 16 -252 56 -346 13 -29 24 -59 24 -65 0 -19 100 -180
118 -190 9 -5 44 -36 77 -68 33 -33 80 -79 105 -103 61 -59 141 -106 230 -133
41 -13 95 -29 120 -37 115 -38 281 -41 433 -9 38 8 83 14 102 14 32 0 154 46
205 78 54 34 207 162 255 213 91 97 198 290 232 419 12 45 17 106 17 200 1
201 -23 307 -113 490 -42 86 -59 108 -177 228 -72 72 -136 132 -142 132 -6 0
-19 9 -29 19 -17 18 -171 81 -238 97 -26 7 -27 8 -10 16 16 7 15 7 -6 3 -14
-2 -39 -1 -56 4 -48 14 -183 20 -253 11z"/>
<path d="M3453 4463 c4 -6 -6 -13 -23 -17 -17 -3 -30 -12 -30 -19 0 -15 -48
-108 -60 -117 -10 -7 -30 -47 -30 -58 0 -5 11 -17 25 -26 21 -14 35 -15 90 -6
136 22 303 -18 430 -101 126 -82 200 -172 252 -307 21 -55 27 -89 31 -190 4
-115 2 -130 -23 -208 -34 -103 -84 -183 -163 -261 -122 -118 -258 -173 -431
-173 -179 0 -312 53 -441 176 -69 66 -88 92 -125 169 -51 106 -70 199 -62 305
3 41 9 112 13 158 6 78 5 84 -17 108 -13 13 -47 32 -77 40 -85 25 -99 24 -112
-5 -30 -64 -60 -177 -70 -260 -25 -200 51 -453 185 -623 138 -176 409 -316
647 -335 193 -15 451 70 611 202 192 158 319 398 334 630 11 164 -46 367 -146
521 -157 243 -408 384 -715 401 -67 4 -97 3 -93 -4z"/>
<path d="M2672 4342 c-91 -92 -126 -147 -223 -342 -25 -50 -59 -228 -58 -302
l1 -63 13 60 c8 33 14 81 14 107 1 69 20 143 42 169 11 13 22 34 26 48 10 42
83 170 124 217 46 53 102 134 94 134 -4 0 -19 -12 -33 -28z"/>
<path d="M3415 4170 c-108 -29 -120 -35 -117 -61 2 -13 6 -26 8 -28 2 -2 54
-8 116 -12 164 -13 233 -26 301 -60 109 -55 165 -124 226 -276 40 -99 21 -271
-37 -342 -9 -11 -28 -37 -42 -57 -38 -56 -81 -96 -97 -89 -9 3 -17 -3 -20 -15
-10 -38 -84 -55 -241 -55 -119 0 -146 3 -155 16 -7 8 -33 24 -59 34 -27 10
-50 26 -53 36 -4 11 -10 19 -14 19 -21 0 -100 96 -133 162 -41 81 -58 163 -58
280 0 75 -1 77 -29 91 -26 13 -29 13 -24 -1 4 -9 2 -13 -4 -9 -16 10 -44 -90
-50 -183 -7 -100 10 -178 61 -285 164 -344 644 -422 935 -151 37 35 99 123
123 176 58 127 63 316 12 448 -67 171 -226 307 -419 357 -62 16 -179 18 -230
5z"/>
<path d="M2381 3445 c-1 -47 45 -223 80 -305 70 -167 249 -371 434 -497 99
-68 124 -80 240 -115 132 -40 264 -68 323 -68 33 0 33 0 13 21 -16 17 -30 20
-87 19 -76 -2 -152 8 -160 21 -3 5 -13 9 -22 9 -10 0 -34 9 -55 20 -20 11 -43
20 -50 20 -7 0 -22 9 -34 19 -11 11 -44 31 -72 45 -28 15 -86 51 -129 81 -42
30 -81 55 -87 55 -14 0 -90 83 -155 169 -30 40 -63 81 -72 91 -40 44 -110 207
-102 235 2 6 -12 55 -31 110 -23 69 -34 91 -34 70z"/>
<path d="M5317 3330 c-51 -311 -246 -717 -449 -935 -38 -40 -68 -77 -68 -82 0
-5 14 -22 30 -38 17 -16 42 -49 56 -72 14 -24 29 -43 33 -43 9 0 117 118 187
205 95 117 216 332 287 510 48 119 111 339 122 421 l6 50 -58 13 c-115 25
-117 26 -123 51 -4 17 -12 -9 -23 -80z"/>
<path d="M4047 1879 c-55 -18 -310 -62 -429 -74 l-58 -6 0 -100 0 -99 95 0
c92 0 293 32 410 66 l50 14 -3 89 c-2 53 1 98 8 110 13 26 6 26 -73 0z"/>
</g>
</svg>
